<svg xmlns="http://www.w3.org/2000/svg" viewBox="0 0 420 340" role="img" aria-labelledby="title desc">
  <title id="title">????</title>
  <desc id="desc">??????????????????</desc>
  <defs>
    <linearGradient id="bg" x1="0" y1="0" x2="1" y2="1"><stop stop-color="#061427"/><stop offset=".52" stop-color="#8b5cf6" stop-opacity=".46"/><stop offset="1" stop-color="#020617"/></linearGradient>
    <radialGradient id="glow" cx="26%" cy="18%" r="76%"><stop stop-color="#7dd3fc" stop-opacity=".7"/><stop offset=".5" stop-color="#ffd89a" stop-opacity=".18"/><stop offset="1" stop-color="transparent"/></radialGradient>
    <filter id="grain"><feTurbulence type="fractalNoise" baseFrequency=".75" numOctaves="2" stitchTiles="stitch"/><feColorMatrix type="saturate" values="0"/><feComponentTransfer><feFuncA type="table" tableValues="0 .12"/></feComponentTransfer></filter>
  </defs>
  <rect width="420" height="340" rx="34" fill="url(#bg)"/>
  <rect width="420" height="340" rx="34" fill="url(#glow)"/>
  <path d="M0 48c74 26 128 30 206 4 70-24 132-16 214 22v-90H0z" fill="rgba(255,255,255,.08)"/>
  <rect x="48" y="76" width="324" height="154" rx="18" fill="rgba(15,23,42,.48)" stroke="rgba(255,255,255,.14)"/><rect x="78" y="100" width="128" height="62" rx="8" fill="rgba(125,211,252,.18)"/><path d="M230 116h92M230 140h74M88 188h230" stroke="#ffd89a" stroke-width="7" stroke-linecap="round" opacity=".72"/><path d="M0 278c110-25 240-28 420 8v54H0z" fill="rgba(4,12,27,.58)"/><g transform="translate(210 238) scale(1.05)" opacity=".86"><circle cx="0" cy="0" r="12" fill="rgba(255,255,255,0.72)"/><path d="M-19 38c3-22 35-22 38 0v12h-38z" fill="rgba(255,255,255,0.72)"/></g><g transform="translate(252 244) scale(0.9)" opacity=".86"><circle cx="0" cy="0" r="12" fill="rgba(219,234,254,.72)"/><path d="M-19 38c3-22 35-22 38 0v12h-38z" fill="rgba(219,234,254,.72)"/></g><g transform="translate(292 238) scale(1.02)" opacity=".86"><circle cx="0" cy="0" r="12" fill="rgba(255,255,255,.65)"/><path d="M-19 38c3-22 35-22 38 0v12h-38z" fill="rgba(255,255,255,.65)"/></g>
  <g opacity=".36" stroke="rgba(255,255,255,.28)" stroke-width="1"><path d="M36 54h62M36 72h34M322 276h54M300 294h76"/></g>
  <rect width="420" height="340" rx="34" fill="rgba(255,255,255,.05)" filter="url(#grain)"/>
</svg>
